{"title":"Bheema (2015) Hindi Dubbed - HD Rip - XviD - [1CD] - Team IcTv E","uid":12027701,"size":725204330,"categoryP":"video","categoryS":"movies","magnet":"?xt=urn:btih:fd4fe0e5e3c0384deb980b6c0752fd368cbe5965&amp;dn=Bheema+%282015%29+Hindi+Dubbed+-+HD+Rip+-+XviD+-+%5B1CD%5D+-+Team+IcTv+E&amp;tr=udp%3A%2F%2Ftracker.openbittorrent.com%3A80&amp;tr=udp%3A%2F%2Fopen.demonii.com%3A1337&amp;tr=udp%3A%2F%2Ftracker.coppersurfer.tk%3A6969&amp;tr=udp%3A%2F%2Fexodus.desync.com%3A6969","seeders":1,"leechers":0,"uploader":"SS132203","files":2,"time":1434554607,"description":"Bheema (2015) Hindi Dubbed - HD Rip - XviD - [1CD] - Team IcTv Exclusive\n &lt;a href=&quot;\nhttp://imgsparrow.co/image/47&quot; rel=&quot;nofollow&quot; target=&quot;_NEW&quot;&gt;\nhttp://imgsparrow.co/image/47&lt;/a&gt;\n &lt;a href=&quot;\nhttp://imgsparrow.co/image/yR&quot; rel=&quot;nofollow&quot; target=&quot;_NEW&quot;&gt;\nhttp://imgsparrow.co/image/yR&lt;/a&gt;\n\nInfo : - \n\nAll Credit Goes To Intellect Clever &amp; IcTv (Thank Them Not Me)\nExclusive First On Net\n\nMovie Info\nBanner :\nYear : 2015\nCast : Vikram,Trisha,Prakash Raj\nVideo: XviD\nAudio : MP3\nGenre : Action/Drama\nSubtitles :nope\nResolution : 640 x 272\nRuntime : 2hr 45min XX\nSource : Team IcTv \n\nFormat : AVI\nFormat/Info : Audio Video Interleave\nFile size : 692 MiB\nDuration : 2h 46mn\nOverall bit rate : 579 Kbps\n\nVideo\nID : 0\nFormat : MPEG-4 Visual\nFormat profile : Advanced Simple@L5\nFormat settings, BVOP : 2\nFormat settings, QPel : No\nFormat settings, GMC : No warppoints\nFormat settings, Matrix : Default (H.263)\nCodec ID : XVID\nCodec ID/Hint : XviD\nDuration : 2h 46mn\nBit rate : 446 Kbps\nWidth : 640 pixels\nHeight : 272 pixels\nDisplay aspect ratio : 2.35:1\nFrame rate : 23.976 fps\nColor space : YUV\nChroma subsampling : 4:2:0\nBit depth : 8 bits\nScan type : Progressive\nCompression mode : Lossy\nBits/(Pixel*Frame) : 0.107\nStream size : 532 MiB (77%)\nWriting library : XviD 1.2.1 (UTC 2008-12-04)\n\nAudio\nID : 1\nFormat : MPEG Audio\nFormat version : Version 1\nFormat profile : Layer 3\nMode : Joint stereo\nMode extension : MS Stereo\nCodec ID : 55\nCodec ID/Hint : MP3\nDuration : 2h 46mn\nBit rate mode : Constant\nBit rate : 128 Kbps\nChannel(s) : 2 channels\nSampling rate : 48.0 KHz\nCompression mode : Lossy\nStream size : 153 MiB (22%)Format : AVI\nFormat/Info : Audio Video Interleave\nFile size : 692 MiB\nDuration : 2h 46mn\nOverall bit rate : 579 Kbps\n\nVideo\nID : 0\nFormat : MPEG-4 Visual\nFormat profile : Advanced Simple@L5\nFormat settings, BVOP : 2\nFormat settings, QPel : No\nFormat settings, GMC : No warppoints\nFormat settings, Matrix : Default (H.263)\nCodec ID : XVID\nCodec ID/Hint : XviD\nDuration : 2h 46mn\nBit rate : 446 Kbps\nWidth : 640 pixels\nHeight : 272 pixels\nDisplay aspect ratio : 2.35:1\nFrame rate : 23.976 fps\nColor space : YUV\nChroma subsampling : 4:2:0\nBit depth : 8 bits\nScan type : Progressive\nCompression mode : Lossy\nBits/(Pixel*Frame) : 0.107\nStream size : 532 MiB (77%)\nWriting library : XviD 1.2.1 (UTC 2008-12-04)\n\nAudio\nID : 1\nFormat : MPEG Audio\nFormat version : Version 1\nFormat profile : Layer 3\nMode : Joint stereo\nMode extension : MS Stereo\nCodec ID : 55\nCodec ID/Hint : MP3\nDuration : 2h 46mn\nBit rate mode : Constant\nBit rate : 128 Kbps\nChannel(s) : 2 channels\nSampling rate : 48.0 KHz\nCompression mode : Lossy\nStream size : 153 MiB (22%)\n\nScreens : - \n &lt;a href=&quot;\nhttp://imgsparrow.co/image/y0&quot; rel=&quot;nofollow&quot; target=&quot;_NEW&quot;&gt;\nhttp://imgsparrow.co/image/y0&lt;/a&gt;  &lt;a href=&quot;\nhttp://imgsparrow.co/image/yB&quot; rel=&quot;nofollow&quot; target=&quot;_NEW&quot;&gt;\nhttp://imgsparrow.co/image/yB&lt;/a&gt;  &lt;a href=&quot;\nhttp://imgsparrow.co/image/yK&quot; rel=&quot;nofollow&quot; target=&quot;_NEW&quot;&gt;\nhttp://imgsparrow.co/image/yK&lt;/a&gt;  &lt;a href=&quot;\nhttp://imgsparrow.co/image/y2&quot; rel=&quot;nofollow&quot; target=&quot;_NEW&quot;&gt;\nhttp://imgsparrow.co/image/y2&lt;/a&gt;  &lt;a href=&quot;\nhttp://imgsparrow.co/image/y3&quot; rel=&quot;nofollow&quot; target=&quot;_NEW&quot;&gt;\nhttp://imgsparrow.co/image/y3&lt;/a&gt;  &lt;a href=&quot;\nhttp://imgsparrow.co/image/yi&quot; rel=&quot;nofollow&quot; target=&quot;_NEW&quot;&gt;\nhttp://imgsparrow.co/image/yi&lt;/a&gt;  &lt;a href=&quot;\nhttp://imgsparrow.co/image/yV&quot; rel=&quot;nofollow&quot; target=&quot;_NEW&quot;&gt;\nhttp://imgsparrow.co/image/yV&lt;/a&gt;  &lt;a href=&quot;\nhttp://imgsparrow.co/image/yl&quot; rel=&quot;nofollow&quot; target=&quot;_NEW&quot;&gt;\nhttp://imgsparrow.co/image/yl&lt;/a&gt;  &lt;a href=&quot;\nhttp://imgsparrow.co/image/ys&quot; rel=&quot;nofollow&quot; target=&quot;_NEW&quot;&gt;\nhttp://imgsparrow.co/image/ys&lt;/a&gt;  &lt;a href=&quot;\nhttp://imgsparrow.co/image/yS&quot; rel=&quot;nofollow&quot; target=&quot;_NEW&quot;&gt;\nhttp://imgsparrow.co/image/yS&lt;/a&gt;\n &lt;a href=&quot;\nhttp://imgsparrow.co/image/N2&quot; rel=&quot;nofollow&quot; target=&quot;_NEW&quot;&gt;\nhttp://imgsparrow.co/image/N2&lt;/a&gt;","torrent":{"xt":"urn:btih:fd4fe0e5e3c0384deb980b6c0752fd368cbe5965","amp;dn":"Bheema+%282015%29+Hindi+Dubbed+-+HD+Rip+-+XviD+-+%5B1CD%5D+-+Team+IcTv+E","amp;tr":["udp%3A%2F%2Ftracker.openbittorrent.com%3A80","udp%3A%2F%2Fopen.demonii.com%3A1337","udp%3A%2F%2Ftracker.coppersurfer.tk%3A6969","udp%3A%2F%2Fexodus.desync.com%3A6969"],"infoHash":"fd4fe0e5e3c0384deb980b6c0752fd368cbe5965","infoHashBuffer":{"type":"Buffer","data":[253,79,224,229,227,192,56,77,235,152,11,108,7,82,253,54,140,190,89,101]},"announce":[],"urlList":[]}}